<svg xmlns="http://www.w3.org/2000/svg" width="158" height="38" fill="none"><path fill="#fff" fill-rule="evenodd" d="m3.456 1.194 26.597 15.418c.864.496 1.35 1.146 1.425 1.808 0-.725-.47-1.454-1.425-2.01L3.456.994C1.548-.121 0 .809 0 3.033v.202C0 1.007 1.548.094 3.456 1.195Z" clip-rule="evenodd" opacity=".25"/><path fill="#000" fill-rule="evenodd" d="m30.052 20.229-6.806 3.943.122.125 6.668-3.867c.955-.555 1.425-1.284 1.425-2.01-.058.667-.544 1.298-1.409 1.809Z" clip-rule="evenodd" opacity=".12"/><path fill="#000" fill-rule="evenodd" d="M23.263 24.172 3.47 35.647c-1.105.649-2.091.604-2.728.014l-.105.107.105.094c.636.587 1.623.635 2.728-.014L23.4 24.297l-.136-.125Z" clip-rule="evenodd" opacity=".2"/><path fill="url(#a)" fill-rule="evenodd" d="M23.385 12.544 3.455.993C2.29.313 1.241.406.622 1.086L17.627 18.42l5.758-5.876Z" clip-rule="evenodd"/><path fill="url(#b)" fill-rule="evenodd" d="m23.385 24.297-5.759-5.877L.622 35.772c.622.68 1.667.756 2.833.093l19.93-11.568Z" clip-rule="evenodd"/><path fill="url(#c)" fill-rule="evenodd" d="m23.264 24.373-5.637-5.751v-.403l5.637-5.751.122.076 6.667 3.867c1.909 1.096 1.909 2.908 0 4.02l-6.667 3.866-.122.076Z" clip-rule="evenodd"/><path fill="url(#d)" fill-rule="evenodd" d="M.622 1.07C.228 1.502 0 2.165 0 3.033V33.81c0 .868.228 1.531.636 1.948l.106.093L17.64 18.608v-.386L.728.976l-.106.094Z" clip-rule="evenodd"/><path fill="#fff" fill-rule="evenodd" d="M79.325 20.864c-3.215 0-5.82 2.489-5.82 5.921 0 3.402 2.622 5.922 5.82 5.922 3.214 0 5.82-2.506 5.82-5.922 0-3.432-2.606-5.921-5.82-5.921Zm0 9.496c-1.759 0-3.273-1.485-3.273-3.588 0-2.135 1.517-3.59 3.273-3.59 1.758 0 3.272 1.455 3.272 3.59.004 2.117-1.514 3.588-3.272 3.588Zm-12.698-9.496c-3.215 0-5.82 2.489-5.82 5.921 0 3.402 2.622 5.922 5.82 5.922 3.214 0 5.82-2.506 5.82-5.922 0-3.432-2.61-5.921-5.82-5.921Zm0 9.496c-1.759 0-3.273-1.485-3.273-3.588 0-2.135 1.517-3.59 3.273-3.59 1.758 0 3.272 1.455 3.272 3.59 0 2.117-1.514 3.588-3.272 3.588Zm-15.11-7.688v2.506h5.895c-.18 1.406-.636 2.444-1.334 3.155-.864.882-2.197 1.84-4.548 1.84-3.622 0-6.456-2.985-6.456-6.681 0-3.697 2.834-6.682 6.456-6.682 1.956 0 3.382.788 4.44 1.794l1.741-1.777c-1.47-1.437-3.425-2.537-6.167-2.537-4.97 0-9.14 4.13-9.14 9.188 0 5.07 4.167 9.187 9.14 9.187 2.684 0 4.698-.895 6.29-2.582 1.622-1.656 2.136-3.992 2.136-5.877 0-.586-.044-1.114-.136-1.561h-8.32c.003-.004.003.027.003.027Zm61.803 1.951c-.486-1.33-1.956-3.773-4.97-3.773-2.986 0-5.469 2.398-5.469 5.921 0 3.326 2.456 5.922 5.759 5.922 2.653 0 4.197-1.656 4.833-2.628l-1.969-1.346c-.653.989-1.562 1.638-2.851 1.638-1.303 0-2.214-.604-2.82-1.794l7.759-3.28c0 .003-.272-.66-.272-.66Zm-7.912 1.978c-.061-2.287 1.742-3.45 3.031-3.45 1.017 0 1.864.51 2.153 1.253l-5.184 2.197Zm-6.303 5.738h2.548V14.943h-2.548v17.396Zm-4.184-10.16h-.092c-.575-.697-1.667-1.329-3.061-1.329-2.895 0-5.562 2.6-5.562 5.939 0 3.325 2.653 5.893 5.562 5.893 1.377 0 2.486-.635 3.061-1.346h.092v.85c0 2.26-1.184 3.478-3.092 3.478-1.561 0-2.53-1.145-2.925-2.103l-2.215.944C87.325 36.067 89.023 38 91.826 38c2.986 0 5.517-1.794 5.517-6.171V21.204h-2.408v.975h-.014Zm-2.925 8.181c-1.759 0-3.228-1.499-3.228-3.571 0-2.09 1.469-3.603 3.228-3.603 1.741 0 3.092 1.53 3.092 3.603.017 2.072-1.347 3.571-3.092 3.571Zm33.254-15.417h-6.093v17.396h2.548V25.75h3.548c2.82 0 5.592-2.086 5.592-5.397 0-3.312-2.762-5.411-5.595-5.411Zm.074 8.378h-3.622v-5.97h3.622c1.909 0 2.987 1.607 2.987 2.985 0 1.364-1.092 2.985-2.987 2.985Zm15.733-2.488c-1.851 0-3.759.836-4.548 2.659l2.258.957c.487-.958 1.378-1.284 2.32-1.284 1.32 0 2.654.805 2.684 2.242v.184c-.456-.263-1.456-.666-2.653-.666-2.439 0-4.912 1.36-4.912 3.912 0 2.336 2 3.835 4.228 3.835 1.711 0 2.653-.788 3.242-1.7h.092v1.346h2.456v-6.664c0-3.103-2.259-4.821-5.167-4.821Zm-.32 9.527c-.833 0-2-.416-2-1.485 0-1.347 1.456-1.857 2.697-1.857 1.123 0 1.653.246 2.32.587-.184 1.561-1.476 2.742-3.017 2.755Zm14.447-9.156-2.926 7.546h-.092l-3.031-7.546h-2.741l4.548 10.548-2.592 5.863h2.653L158 21.205h-2.816ZM132.25 32.34h2.548V14.943h-2.548v17.396Z" clip-rule="evenodd"/><path fill="#fff" d="M83.798 9c-1.235 0-2.276-.44-3.099-1.308a4.505 4.505 0 0 1-1.252-3.194c0-1.267.422-2.34 1.252-3.19C81.52.442 82.56 0 83.795 0c1.22 0 2.262.44 3.098 1.309.83.878 1.252 1.95 1.252 3.19-.013 1.27-.435 2.342-1.252 3.19-.82.874-1.86 1.311-3.095 1.311Zm-36.74 0c-1.208 0-2.255-.434-3.113-1.291-.85-.854-1.282-1.933-1.282-3.207 0-1.274.432-2.353 1.282-3.207.84-.858 1.888-1.292 3.113-1.292.598 0 1.18.122 1.738.368.548.24.993.566 1.323.965l.082.101-.922.923-.095-.114c-.52-.632-1.218-.94-2.14-.94-.823 0-1.54.298-2.133.888-.595.593-.898 1.37-.898 2.311 0 .94.303 1.718.898 2.312.592.59 1.31.888 2.133.888.878 0 1.616-.298 2.19-.888.34-.347.552-.833.627-1.447h-2.956V4.07h4.224l.017.118c.031.22.062.445.062.653 0 1.197-.354 2.166-1.055 2.88C49.357 8.57 48.316 9 47.058 9Zm48.85-.184h-1.303l-3.99-6.515.034 1.173v5.339h-1.303V.187h1.486l.041.066 3.752 6.137-.034-1.17V.187h1.317v8.63Zm-21.9 0h-1.32v-7.33H70.4V.187h5.895v1.299h-2.29v7.33h.004Zm-4.684 0h-1.316V.187h1.316v8.63Zm-7.398 0H60.61v-7.33h-2.29V.187h5.895v1.299h-2.289v7.33Zm-4.44-.014H52.44V.187h5.048v1.299h-3.728v2.367h3.364v1.284h-3.364v2.367h3.728v1.298ZM81.667 6.8c.588.6 1.302.902 2.132.902.854 0 1.551-.295 2.133-.902.578-.59.87-1.364.87-2.298 0-.934-.292-1.711-.867-2.298a2.89 2.89 0 0 0-2.133-.902c-.853 0-1.55.295-2.129.902-.578.59-.87 1.364-.87 2.298 0 .934.288 1.711.863 2.298Z"/><defs><linearGradient id="a" x1="-3.66" x2="6.327" y1="-9.168" y2="7.323" gradientUnits="userSpaceOnUse"><stop stop-color="#32A071"/><stop offset=".069" stop-color="#2DA771"/><stop offset=".476" stop-color="#15CF74"/><stop offset=".801" stop-color="#06E775"/><stop offset="1" stop-color="#00F076"/></linearGradient><linearGradient id="b" x1="20.254" x2="-2.132" y1="21.618" y2="58.542" gradientUnits="userSpaceOnUse"><stop stop-color="#FF3A44"/><stop offset="1" stop-color="#C31162"/></linearGradient><linearGradient id="c" x1="32.542" x2="-.464" y1="18.421" y2="18.421" gradientUnits="userSpaceOnUse"><stop stop-color="#FFE000"/><stop offset=".409" stop-color="#FFBD00"/><stop offset=".775" stop-color="orange"/><stop offset="1" stop-color="#FF9C00"/></linearGradient><linearGradient id="d" x1="16.125" x2="-11.016" y1="2.702" y2="9.789" gradientUnits="userSpaceOnUse"><stop stop-color="#00A0FF"/><stop offset=".007" stop-color="#00A1FF"/><stop offset=".26" stop-color="#00BEFF"/><stop offset=".512" stop-color="#00D2FF"/><stop offset=".76" stop-color="#00DFFF"/><stop offset="1" stop-color="#00E3FF"/></linearGradient></defs></svg>