<svg width="80" height="80" viewBox="0 0 80 80" fill="none" xmlns="http://www.w3.org/2000/svg">
<rect width="80" height="80" rx="20" fill="url(#paint0_linear_66_1075)"/>
<path d="M20.3125 65.3906V51.2102C20.3283 51.1933 20.3399 51.1722 20.3463 51.1463C20.3463 42.2284 29.5213 40.2486 32.5218 39.9565C32.5305 39.9556 32.5391 39.9548 32.5477 39.954C32.5605 39.9528 32.5732 39.9516 32.5858 39.9504H38.5787C40.4243 39.9504 41.965 39.6281 43.2009 38.9834C44.4533 38.3387 45.4008 37.4378 46.0434 36.2807C46.6861 35.107 47.0074 33.7433 47.0074 32.1894C47.0074 30.619 46.6861 29.2635 46.0434 28.1229C45.4008 26.9658 44.4533 26.0732 43.2009 25.445C41.9486 24.8169 40.4078 24.5028 38.5787 24.5028H32.5477V38.7539C29.5745 38.4707 20.3463 36.5052 20.3463 27.5616C20.3399 27.5357 20.3283 27.5146 20.3125 27.4977V14.6094H41.2235C45.0135 14.6094 48.2845 15.3532 51.0364 16.841C53.8047 18.3122 55.9387 20.3702 57.4382 23.0151C58.9377 25.6434 59.6875 28.7015 59.6875 32.1894C59.6875 35.6938 58.9213 38.7602 57.3888 41.3886C55.8728 44.0003 53.7059 46.0253 50.8881 47.4635C48.0703 48.9016 44.7252 49.6207 40.8528 49.6207H32.5477V65.3906H20.3125Z" fill="white"/>
<defs>
<linearGradient id="paint0_linear_66_1075" x1="40" y1="0" x2="40" y2="80" gradientUnits="userSpaceOnUse">
<stop stop-color="#383838"/>
<stop offset="1" stop-color="#262626"/>
</linearGradient>
</defs>
</svg>
