<svg xmlns="http://www.w3.org/2000/svg" width="80" height="80" fill="none"><rect width="80" height="80" fill="url(#a)" rx="20"/><path fill="#fff" d="M20.313 65.39V51.21a.141.141 0 0 0 .033-.064c0-8.918 9.175-10.897 12.176-11.19a2.51 2.51 0 0 1 .064-.006h5.993c1.845 0 3.386-.322 4.622-.967 1.252-.644 2.2-1.545 2.842-2.702.643-1.174.964-2.538.964-4.092 0-1.57-.32-2.925-.964-4.066-.642-1.157-1.59-2.05-2.842-2.678-1.252-.628-2.793-.942-4.622-.942h-6.031v14.25c-2.974-.282-12.202-2.248-12.202-11.191a.141.141 0 0 0-.034-.064V14.609h20.912c3.79 0 7.06.744 9.812 2.232 2.769 1.471 4.903 3.53 6.402 6.174 1.5 2.628 2.25 5.686 2.25 9.174 0 3.505-.767 6.571-2.3 9.2-1.515 2.611-3.682 4.636-6.5 6.075-2.818 1.438-6.163 2.157-10.035 2.157h-8.305v15.77H20.312Z"/><defs><linearGradient id="a" x1="40" x2="40" y1="0" y2="80" gradientUnits="userSpaceOnUse"><stop stop-color="#383838"/><stop offset="1" stop-color="#262626"/></linearGradient></defs></svg>