<svg xmlns="http://www.w3.org/2000/svg" width="500" height="500"><defs><clipPath id="a"><circle cx="21.5" cy="192.5" r="9.5"/><circle cx="21.5" cy="230.5" r="9.5"/><circle cx="21.5" cy="249.5" r="9.5"/><circle cx="21.5" cy="268.5" r="9.5"/><circle cx="21.5" cy="325.5" r="9.5"/><circle cx="40.5" cy="173.5" r="9.5"/><circle cx="40.5" cy="325.5" r="9.5"/><circle cx="59.5" cy="173.5" r="9.5"/><circle cx="59.5" cy="192.5" r="9.5"/><circle cx="59.5" cy="230.5" r="9.5"/><circle cx="59.5" cy="268.5" r="9.5"/><circle cx="59.5" cy="287.5" r="9.5"/><circle cx="59.5" cy="306.5" r="9.5"/><circle cx="78.5" cy="230.5" r="9.5"/><circle cx="78.5" cy="249.5" r="9.5"/><circle cx="97.5" cy="192.5" r="9.5"/><circle cx="97.5" cy="268.5" r="9.5"/><circle cx="97.5" cy="287.5" r="9.5"/><circle cx="97.5" cy="306.5" r="9.5"/><circle cx="97.5" cy="325.5" r="9.5"/><circle cx="116.5" cy="192.5" r="9.5"/><circle cx="116.5" cy="211.5" r="9.5"/><circle cx="116.5" cy="287.5" r="9.5"/><circle cx="135.5" cy="173.5" r="9.5"/><circle cx="135.5" cy="211.5" r="9.5"/><circle cx="135.5" cy="249.5" r="9.5"/><circle cx="135.5" cy="287.5" r="9.5"/><circle cx="135.5" cy="325.5" r="9.5"/><circle cx="154.5" cy="192.5" r="9.5"/><circle cx="154.5" cy="268.5" r="9.5"/><circle cx="154.5" cy="287.5" r="9.5"/><circle cx="154.5" cy="306.5" r="9.5"/><circle cx="173.5" cy="40.5" r="9.5"/><circle cx="173.5" cy="59.5" r="9.5"/><circle cx="173.5" cy="78.5" r="9.5"/><circle cx="173.5" cy="116.5" r="9.5"/><circle cx="173.5" cy="135.5" r="9.5"/><circle cx="173.5" cy="192.5" r="9.5"/><circle cx="173.5" cy="211.5" r="9.5"/><circle cx="173.5" cy="230.5" r="9.5"/><circle cx="173.5" cy="268.5" r="9.5"/><circle cx="173.5" cy="287.5" r="9.5"/><circle cx="173.5" cy="325.5" r="9.5"/><circle cx="173.5" cy="439.5" r="9.5"/><circle cx="173.5" cy="458.5" r="9.5"/><circle cx="192.5" cy="40.5" r="9.5"/><circle cx="192.5" cy="59.5" r="9.5"/><circle cx="192.5" cy="116.5" r="9.5"/><circle cx="192.5" cy="154.5" r="9.5"/><circle cx="192.5" cy="173.5" r="9.5"/><circle cx="192.5" cy="211.5" r="9.5"/><circle cx="192.5" cy="230.5" r="9.5"/><circle cx="192.5" cy="325.5" r="9.5"/><circle cx="192.5" cy="382.5" r="9.5"/><circle cx="192.5" cy="458.5" r="9.5"/><circle cx="211.5" cy="21.5" r="9.5"/><circle cx="211.5" cy="78.5" r="9.5"/><circle cx="211.5" cy="135.5" r="9.5"/><circle cx="211.5" cy="154.5" r="9.5"/><circle cx="211.5" cy="230.5" r="9.5"/><circle cx="211.5" cy="287.5" r="9.5"/><circle cx="211.5" cy="363.5" r="9.5"/><circle cx="211.5" cy="382.5" r="9.5"/><circle cx="230.5" cy="40.5" r="9.5"/><circle cx="230.5" cy="59.5" r="9.5"/><circle cx="230.5" cy="97.5" r="9.5"/><circle cx="230.5" cy="116.5" r="9.5"/><circle cx="230.5" cy="211.5" r="9.5"/><circle cx="230.5" cy="230.5" r="9.5"/><circle cx="230.5" cy="249.5" r="9.5"/><circle cx="230.5" cy="268.5" r="9.5"/><circle cx="230.5" cy="287.5" r="9.5"/><circle cx="230.5" cy="306.5" r="9.5"/><circle cx="230.5" cy="344.5" r="9.5"/><circle cx="230.5" cy="363.5" r="9.5"/><circle cx="230.5" cy="420.5" r="9.5"/><circle cx="230.5" cy="439.5" r="9.5"/><circle cx="249.5" cy="59.5" r="9.5"/><circle cx="249.5" cy="116.5" r="9.5"/><circle cx="249.5" cy="135.5" r="9.5"/><circle cx="249.5" cy="154.5" r="9.5"/><circle cx="249.5" cy="192.5" r="9.5"/><circle cx="249.5" cy="230.5" r="9.5"/><circle cx="249.5" cy="249.5" r="9.5"/><circle cx="249.5" cy="344.5" r="9.5"/><circle cx="249.5" cy="363.5" r="9.5"/><circle cx="249.5" cy="401.5" r="9.5"/><circle cx="249.5" cy="439.5" r="9.5"/><circle cx="249.5" cy="458.5" r="9.5"/><circle cx="249.5" cy="477.5" r="9.5"/><circle cx="268.5" cy="97.5" r="9.5"/><circle cx="268.5" cy="173.5" r="9.5"/><circle cx="268.5" cy="230.5" r="9.5"/><circle cx="268.5" cy="249.5" r="9.5"/><circle cx="268.5" cy="268.5" r="9.5"/><circle cx="268.5" cy="306.5" r="9.5"/><circle cx="268.5" cy="344.5" r="9.5"/><circle cx="268.5" cy="363.5" r="9.5"/><circle cx="268.5" cy="382.5" r="9.5"/><circle cx="268.5" cy="401.5" r="9.5"/><circle cx="268.5" cy="477.5" r="9.5"/><circle cx="287.5" cy="40.5" r="9.5"/><circle cx="287.5" cy="59.5" r="9.5"/><circle cx="287.5" cy="97.5" r="9.5"/><circle cx="287.5" cy="135.5" r="9.5"/><circle cx="287.5" cy="192.5" r="9.5"/><circle cx="287.5" cy="230.5" r="9.5"/><circle cx="287.5" cy="249.5" r="9.5"/><circle cx="287.5" cy="268.5" r="9.5"/><circle cx="287.5" cy="344.5" r="9.5"/><circle cx="287.5" cy="363.5" r="9.5"/><circle cx="287.5" cy="401.5" r="9.5"/><circle cx="287.5" cy="439.5" r="9.5"/><circle cx="287.5" cy="458.5" r="9.5"/><circle cx="306.5" cy="21.5" r="9.5"/><circle cx="306.5" cy="97.5" r="9.5"/><circle cx="306.5" cy="154.5" r="9.5"/><circle cx="306.5" cy="173.5" r="9.5"/><circle cx="306.5" cy="192.5" r="9.5"/><circle cx="306.5" cy="211.5" r="9.5"/><circle cx="306.5" cy="287.5" r="9.5"/><circle cx="306.5" cy="306.5" r="9.5"/><circle cx="306.5" cy="325.5" r="9.5"/><circle cx="306.5" cy="344.5" r="9.5"/><circle cx="306.5" cy="382.5" r="9.5"/><circle cx="306.5" cy="401.5" r="9.5"/><circle cx="306.5" cy="477.5" r="9.5"/><circle cx="325.5" cy="135.5" r="9.5"/><circle cx="325.5" cy="154.5" r="9.5"/><circle cx="325.5" cy="173.5" r="9.5"/><circle cx="325.5" cy="192.5" r="9.5"/><circle cx="325.5" cy="211.5" r="9.5"/><circle cx="325.5" cy="230.5" r="9.5"/><circle cx="325.5" cy="287.5" r="9.5"/><circle cx="325.5" cy="325.5" r="9.5"/><circle cx="325.5" cy="344.5" r="9.5"/><circle cx="325.5" cy="363.5" r="9.5"/><circle cx="325.5" cy="382.5" r="9.5"/><circle cx="325.5" cy="401.5" r="9.5"/><circle cx="325.5" cy="420.5" r="9.5"/><circle cx="325.5" cy="439.5" r="9.5"/><circle cx="325.5" cy="458.5" r="9.5"/><circle cx="325.5" cy="477.5" r="9.5"/><circle cx="344.5" cy="173.5" r="9.5"/><circle cx="344.5" cy="192.5" r="9.5"/><circle cx="344.5" cy="211.5" r="9.5"/><circle cx="344.5" cy="249.5" r="9.5"/><circle cx="344.5" cy="325.5" r="9.5"/><circle cx="344.5" cy="401.5" r="9.5"/><circle cx="344.5" cy="439.5" r="9.5"/><circle cx="344.5" cy="477.5" r="9.5"/><circle cx="363.5" cy="211.5" r="9.5"/><circle cx="363.5" cy="249.5" r="9.5"/><circle cx="363.5" cy="268.5" r="9.5"/><circle cx="363.5" cy="287.5" r="9.5"/><circle cx="363.5" cy="325.5" r="9.5"/><circle cx="363.5" cy="363.5" r="9.5"/><circle cx="363.5" cy="401.5" r="9.5"/><circle cx="363.5" cy="439.5" r="9.5"/><circle cx="363.5" cy="458.5" r="9.5"/><circle cx="363.5" cy="477.5" r="9.5"/><circle cx="382.5" cy="173.5" r="9.5"/><circle cx="382.5" cy="192.5" r="9.5"/><circle cx="382.5" cy="211.5" r="9.5"/><circle cx="382.5" cy="230.5" r="9.5"/><circle cx="382.5" cy="268.5" r="9.5"/><circle cx="382.5" cy="306.5" r="9.5"/><circle cx="382.5" cy="325.5" r="9.5"/><circle cx="382.5" cy="401.5" r="9.5"/><circle cx="382.5" cy="458.5" r="9.5"/><circle cx="382.5" cy="477.5" r="9.5"/><circle cx="401.5" cy="325.5" r="9.5"/><circle cx="401.5" cy="344.5" r="9.5"/><circle cx="401.5" cy="363.5" r="9.5"/><circle cx="401.5" cy="382.5" r="9.5"/><circle cx="401.5" cy="401.5" r="9.5"/><circle cx="401.5" cy="420.5" r="9.5"/><circle cx="420.5" cy="173.5" r="9.5"/><circle cx="420.5" cy="230.5" r="9.5"/><circle cx="420.5" cy="249.5" r="9.5"/><circle cx="420.5" cy="287.5" r="9.5"/><circle cx="420.5" cy="306.5" r="9.5"/><circle cx="420.5" cy="344.5" r="9.5"/><circle cx="420.5" cy="363.5" r="9.5"/><circle cx="420.5" cy="401.5" r="9.5"/><circle cx="420.5" cy="420.5" r="9.5"/><circle cx="420.5" cy="439.5" r="9.5"/><circle cx="420.5" cy="458.5" r="9.5"/><circle cx="420.5" cy="477.5" r="9.5"/><circle cx="439.5" cy="173.5" r="9.5"/><circle cx="439.5" cy="287.5" r="9.5"/><circle cx="439.5" cy="306.5" r="9.5"/><circle cx="439.5" cy="325.5" r="9.5"/><circle cx="439.5" cy="344.5" r="9.5"/><circle cx="439.5" cy="363.5" r="9.5"/><circle cx="439.5" cy="401.5" r="9.5"/><circle cx="439.5" cy="439.5" r="9.5"/><circle cx="439.5" cy="458.5" r="9.5"/><circle cx="458.5" cy="173.5" r="9.5"/><circle cx="458.5" cy="192.5" r="9.5"/><circle cx="458.5" cy="211.5" r="9.5"/><circle cx="458.5" cy="249.5" r="9.5"/><circle cx="458.5" cy="268.5" r="9.5"/><circle cx="458.5" cy="287.5" r="9.5"/><circle cx="458.5" cy="344.5" r="9.5"/><circle cx="458.5" cy="401.5" r="9.5"/><circle cx="458.5" cy="439.5" r="9.5"/><circle cx="477.5" cy="211.5" r="9.5"/><circle cx="477.5" cy="268.5" r="9.5"/><circle cx="477.5" cy="287.5" r="9.5"/><circle cx="477.5" cy="344.5" r="9.5"/><circle cx="477.5" cy="382.5" r="9.5"/><circle cx="477.5" cy="401.5" r="9.5"/><circle cx="477.5" cy="420.5" r="9.5"/><circle cx="477.5" cy="439.5" r="9.5"/><circle cx="477.5" cy="458.5" r="9.5"/><circle cx="477.5" cy="477.5" r="9.5"/></clipPath><clipPath id="b"><path d="M12 59.5v38A47.5 47.5 0 0 0 59.5 145h38A47.5 47.5 0 0 0 145 97.5v-38A47.5 47.5 0 0 0 97.5 12h-38A47.5 47.5 0 0 0 12 59.5M59.5 31h38A28.5 28.5 0 0 1 126 59.5v38A28.5 28.5 0 0 1 97.5 126h-38A28.5 28.5 0 0 1 31 97.5v-38A28.5 28.5 0 0 1 59.5 31" clip-rule="evenodd"/></clipPath><clipPath id="c"><circle cx="78.5" cy="78.5" r="28.5"/></clipPath><clipPath id="d"><path d="M439.5 12h-38A47.5 47.5 0 0 0 354 59.5v38a47.5 47.5 0 0 0 47.5 47.5h38A47.5 47.5 0 0 0 487 97.5v-38A47.5 47.5 0 0 0 439.5 12M468 59.5v38a28.5 28.5 0 0 1-28.5 28.5h-38A28.5 28.5 0 0 1 373 97.5v-38A28.5 28.5 0 0 1 401.5 31h38A28.5 28.5 0 0 1 468 59.5" clip-rule="evenodd"/></clipPath><clipPath id="e"><circle cx="420.5" cy="78.5" r="28.5" transform="rotate(90 420.5 78.5)"/></clipPath><clipPath id="f"><path d="M59.5 487h38a47.5 47.5 0 0 0 47.5-47.5v-38A47.5 47.5 0 0 0 97.5 354h-38A47.5 47.5 0 0 0 12 401.5v38A47.5 47.5 0 0 0 59.5 487M31 439.5v-38A28.5 28.5 0 0 1 59.5 373h38a28.5 28.5 0 0 1 28.5 28.5v38A28.5 28.5 0 0 1 97.5 468h-38A28.5 28.5 0 0 1 31 439.5" clip-rule="evenodd"/></clipPath><clipPath id="g"><circle cx="78.5" cy="420.5" r="28.5" transform="rotate(-90 78.5 420.5)"/></clipPath></defs><path fill="#fff" d="M0 0h500v500H0z" clip-path="url('#clip-path-background-color')"/><path d="M0 0h500v500H0z" clip-path="url('#a')"/><path d="M12 12h133v133H12z" clip-path="url('#b')"/><path d="M50 50h57v57H50z" clip-path="url('#c')"/><path d="M354 12h133v133H354z" clip-path="url('#d')"/><path d="M392 50h57v57h-57z" clip-path="url('#e')"/><path d="M12 354h133v133H12z" clip-path="url('#f')"/><path d="M50 392h57v57H50z" clip-path="url('#g')"/></svg>