<?xml version="1.0" encoding="utf-8"?><svg viewBox="0 0 200 60" xmlns="http://www.w3.org/2000/svg" xmlns:xlink="http://www.w3.org/1999/xlink"><style>:root>svg{display:none}:root>svg:target{display:block}</style><svg fill="none" viewBox="0 0 61 60" id="arrow_left" xmlns="http://www.w3.org/2000/svg"><path fill-rule="evenodd" clip-rule="evenodd" d="M28.92 1.193 1.75 27.12a3.943 3.943 0 0 0 0 5.762l27.17 25.926c1.668 1.59 4.37 1.59 6.038 0a3.943 3.943 0 0 0 0-5.762L15.076 34.074h41.155c2.358 0 4.269-1.824 4.269-4.074s-1.911-4.074-4.27-4.074H15.077L34.958 6.955a3.943 3.943 0 0 0 0-5.762c-1.667-1.59-4.37-1.59-6.038 0Z" fill="#fff"/></svg><svg fill="none" viewBox="0 0 61 60" id="arrow_right" xmlns="http://www.w3.org/2000/svg"><path fill-rule="evenodd" clip-rule="evenodd" d="M32.08 1.193 59.25 27.12a3.943 3.943 0 0 1 0 5.762L32.08 58.807c-1.668 1.59-4.37 1.59-6.038 0a3.943 3.943 0 0 1 0-5.762l19.882-18.971H4.769C2.411 34.074.5 32.25.5 30s1.911-4.074 4.27-4.074h41.154L26.042 6.955a3.943 3.943 0 0 1 0-5.762c1.667-1.59 4.37-1.59 6.038 0Z" fill="#fff"/></svg><svg fill="none" viewBox="0 0 200 36" id="logo" xmlns="http://www.w3.org/2000/svg"><path d="M0 36V25.948a.1.1 0 0 0 .024-.046c0-6.322 6.582-7.726 8.734-7.933l.019-.001.03-.003h4.296c1.324 0 2.43-.229 3.316-.686.898-.457 1.578-1.095 2.039-1.916.46-.832.691-1.799.691-2.9 0-1.113-.23-2.074-.691-2.883-.461-.82-1.14-1.453-2.04-1.898-.898-.446-2.003-.668-3.315-.668H8.777v10.103C6.644 16.916.024 15.523.024 9.182A.1.1 0 0 0 0 9.137V0h15c2.719 0 5.065.527 7.04 1.582 1.985 1.043 3.516 2.502 4.592 4.377 1.075 1.863 1.613 4.031 1.613 6.504 0 2.484-.55 4.658-1.649 6.521-1.087 1.852-2.642 3.287-4.663 4.307-2.021 1.02-4.42 1.53-7.199 1.53H8.777V36H0Zm63.255-.51v-27h8.423v4.922h.283c.497-1.781 1.306-3.106 2.43-3.973 1.122-.879 2.429-1.318 3.918-1.318.402 0 .816.03 1.241.088.426.047.822.123 1.188.228v7.471c-.414-.14-.957-.252-1.631-.334a14.586 14.586 0 0 0-1.773-.123c-1.029 0-1.957.229-2.784.686a4.947 4.947 0 0 0-1.933 1.88c-.46.797-.691 1.735-.691 2.813v14.66h-8.67ZM99.91 16.279H108c-.315-2.456-1.475-4.402-3.48-5.838-2.128-1.535-5.036-2.302-8.724-2.302-2.459 0-4.592.34-6.4 1.02-1.81.679-3.204 1.663-4.185 2.952-.981 1.278-1.466 2.819-1.454 4.623-.012 2.063.65 3.762 1.986 5.098 1.335 1.324 3.369 2.232 6.099 2.724l4.752.897c1.135.21 1.968.504 2.5.879.532.363.804.85.816 1.459-.012.68-.367 1.224-1.064 1.635-.698.41-1.602.615-2.713.615-1.23 0-2.24-.258-3.032-.774a3.214 3.214 0 0 1-1.222-1.431h-8.723c.43 2.39 1.677 4.32 3.74 5.79C89.14 35.21 92.208 36 96.096 36c2.436 0 4.599-.375 6.49-1.125 1.891-.762 3.381-1.828 4.468-3.2 1.099-1.37 1.655-2.982 1.667-4.833-.012-1.97-.686-3.551-2.022-4.746-1.323-1.196-3.345-2.051-6.063-2.567l-5.249-.984c-1.146-.235-1.944-.545-2.394-.932-.437-.387-.65-.844-.638-1.37-.012-.68.331-1.22 1.029-1.618.709-.399 1.566-.598 2.57-.598.769 0 1.443.13 2.022.387.59.246 1.07.592 1.436 1.037.215.254.38.53.498.828Zm52.664 19.211V20.092c.012-1.032.201-1.91.568-2.637a3.974 3.974 0 0 1 1.596-1.67c.697-.398 1.501-.598 2.411-.598 1.371 0 2.441.422 3.209 1.266.78.844 1.165 2.016 1.153 3.516V35.49h8.67V18.281c.012-2.027-.378-3.797-1.17-5.308-.78-1.524-1.88-2.708-3.298-3.551-1.407-.856-3.067-1.283-4.982-1.283-2.01 0-3.742.474-5.195 1.423-1.454.938-2.483 2.233-3.086 3.885h-.301V8.49h-8.245v27h8.67Zm38.615-19.211h8.089c-.315-2.456-1.475-4.402-3.48-5.838-2.128-1.535-5.036-2.302-8.724-2.302-2.458 0-4.592.34-6.401 1.02-1.808.679-3.203 1.663-4.184 2.952-.981 1.278-1.466 2.819-1.454 4.623-.012 2.063.65 3.762 1.986 5.098 1.336 1.324 3.369 2.232 6.099 2.724l4.752.897c1.135.21 1.968.504 2.5.879.532.363.804.85.816 1.459-.012.68-.367 1.224-1.064 1.635-.698.41-1.602.615-2.713.615-1.229 0-2.24-.258-3.032-.774a3.213 3.213 0 0 1-1.222-1.431h-8.723c.431 2.39 1.677 4.32 3.739 5.79 2.246 1.583 5.314 2.374 9.203 2.374 2.435 0 4.598-.375 6.489-1.125 1.891-.762 3.381-1.828 4.468-3.2 1.1-1.37 1.655-2.982 1.667-4.833-.012-1.97-.686-3.551-2.021-4.746-1.324-1.196-3.346-2.051-6.064-2.567l-5.249-.984c-1.146-.235-1.944-.545-2.393-.932-.438-.387-.65-.844-.639-1.37-.011-.68.331-1.22 1.029-1.618.709-.399 1.566-.598 2.571-.598.768 0 1.442.13 2.021.387.591.246 1.07.592 1.436 1.037.215.254.381.53.498.828Z" fill="#fff"/><path fill-rule="evenodd" clip-rule="evenodd" d="M36.985 34.312c2.175 1.114 4.761 1.67 7.758 1.67 2.499 0 4.7-.357 6.601-1.072 1.903-.726 3.438-1.74 4.607-3.041a9.47 9.47 0 0 0 2.16-4.033h-8.365a3.803 3.803 0 0 1-.626.693c-.472.41-1.038.72-1.697.932-.659.21-1.704.316-2.513.316-1.168 0-2.487-.228-3.333-.685a4.827 4.827 0 0 1-1.958-1.916c-.46-.832-.69-1.8-.69-2.9v-.23h19.409v-2.144c0-2.215-.342-4.178-1.026-5.888-.684-1.723-1.641-3.17-2.872-4.342-1.23-1.172-2.691-2.057-4.382-2.655-1.691-.597-3.556-.896-5.595-.896-2.885 0-5.39.586-7.516 1.758-2.126 1.16-3.773 2.789-4.942 4.886-1.168 2.087-1.753 4.524-1.753 7.313 0 2.871.578 5.35 1.735 7.436 1.168 2.074 2.834 3.673 4.998 4.798Zm1.95-15.257a4.652 4.652 0 0 1 .74-2.338 4.955 4.955 0 0 1 1.92-1.74c.809-.434 2.035-.65 3.054-.65 1.007 0 2.208.204 2.98.614a4.578 4.578 0 0 1 1.846 1.67c.447.715.677 1.53.69 2.444h-11.23Zm79.524 15.205c2.099 1.16 4.609 1.74 7.528 1.74 2.92 0 5.423-.58 7.51-1.74 2.099-1.172 3.71-2.801 4.832-4.887 1.134-2.098 1.701-4.53 1.701-7.295 0-2.777-.567-5.209-1.701-7.295-1.122-2.097-2.733-3.726-4.832-4.886-2.087-1.172-4.59-1.758-7.51-1.758-2.919 0-5.429.586-7.528 1.758a12.027 12.027 0 0 0-4.832 4.886c-1.122 2.086-1.683 4.518-1.683 7.295 0 2.766.561 5.197 1.683 7.295 1.134 2.086 2.745 3.715 4.832 4.887Zm10.279-5.695c-.736.632-1.635.949-2.697.949-1.098 0-2.026-.317-2.786-.95-.748-.632-1.322-1.511-1.72-2.636-.386-1.125-.579-2.426-.579-3.903 0-1.5.193-2.812.579-3.937.398-1.125.972-2.004 1.72-2.637.76-.633 1.688-.949 2.786-.949 1.062 0 1.961.316 2.697.95.736.632 1.297 1.51 1.683 2.636.398 1.125.597 2.437.597 3.937 0 1.477-.199 2.778-.597 3.903-.386 1.125-.947 2.004-1.683 2.636Z" fill="#fff"/></svg></svg>