<svg xmlns="http://www.w3.org/2000/svg" width="150" height="38" fill="none"><path fill="#fff" d="M41.985.446a3.956 3.956 0 0 1 3.174 1.24 4.008 4.008 0 0 1 1.058 3.257c0 2.891-1.553 4.553-4.232 4.553h-3.248V.446h3.248Zm-1.851 7.77h1.695a2.811 2.811 0 0 0 2.253-.917 2.85 2.85 0 0 0 .713-2.338 2.87 2.87 0 0 0-.724-2.322 2.835 2.835 0 0 0-2.242-.914h-1.695v6.491ZM47.795 6.078a3.257 3.257 0 0 1 .821-2.484 3.216 3.216 0 0 1 2.38-1.06 3.199 3.199 0 0 1 2.38 1.06 3.24 3.24 0 0 1 .82 2.484 3.254 3.254 0 0 1-.819 2.488 3.217 3.217 0 0 1-2.381 1.062 3.199 3.199 0 0 1-2.382-1.062 3.24 3.24 0 0 1-.82-2.488Zm5.024 0c0-1.48-.661-2.346-1.821-2.346-1.164 0-1.82.866-1.82 2.346 0 1.492.656 2.351 1.82 2.351 1.16 0 1.82-.865 1.82-2.351ZM62.706 9.496h-1.39l-1.402-5.03h-.106l-1.397 5.03h-1.376l-1.871-6.83h1.359l1.215 5.212h.1l1.396-5.212h1.285l1.395 5.212h.106l1.21-5.212h1.34l-1.864 6.83ZM66.143 2.666h1.29v1.085h.1c.17-.39.456-.716.82-.934a2.022 2.022 0 0 1 1.205-.283 2.195 2.195 0 0 1 1.782.702 2.225 2.225 0 0 1 .568 1.838v4.422h-1.34V5.413c0-1.098-.474-1.643-1.465-1.643a1.548 1.548 0 0 0-1.205.49 1.57 1.57 0 0 0-.415 1.24v3.996h-1.34v-6.83ZM74.041 0h1.34v9.496h-1.34V0ZM77.244 6.078a3.255 3.255 0 0 1 .821-2.484 3.216 3.216 0 0 1 2.38-1.06 3.199 3.199 0 0 1 2.38 1.06 3.239 3.239 0 0 1 .821 2.484 3.254 3.254 0 0 1-.82 2.488 3.216 3.216 0 0 1-2.381 1.062 3.2 3.2 0 0 1-2.382-1.062 3.24 3.24 0 0 1-.82-2.488Zm5.024 0c0-1.48-.661-2.346-1.821-2.346-1.165 0-1.82.866-1.82 2.346 0 1.492.656 2.351 1.82 2.351 1.16 0 1.82-.865 1.82-2.351ZM85.056 7.564c0-1.229.91-1.938 2.524-2.038l1.839-.107v-.59c0-.721-.474-1.128-1.39-1.128-.747 0-1.266.276-1.414.759h-1.297c.137-1.173 1.234-1.926 2.773-1.926 1.702 0 2.662.853 2.662 2.295v4.667h-1.29v-.96h-.106a2.272 2.272 0 0 1-2.039 1.072 2.039 2.039 0 0 1-1.581-.517 2.063 2.063 0 0 1-.681-1.527Zm4.363-.583V6.41l-1.657.106c-.935.063-1.36.383-1.36.985 0 .615.53.973 1.26.973a1.59 1.59 0 0 0 1.193-.372 1.61 1.61 0 0 0 .564-1.121ZM92.513 6.078c0-2.158 1.102-3.525 2.817-3.525.424-.02.846.082 1.214.295.369.212.67.525.868.903h.1V0h1.34v9.496h-1.284v-1.08h-.106a2.363 2.363 0 0 1-.9.896c-.376.21-.802.312-1.232.296-1.726 0-2.817-1.367-2.817-3.53Zm1.384 0c0 1.449.678 2.32 1.813 2.32 1.13 0 1.827-.884 1.827-2.314 0-1.423-.705-2.32-1.827-2.32-1.127 0-1.813.877-1.813 2.314ZM104.393 6.078a3.274 3.274 0 0 1 .15-1.33 3.225 3.225 0 0 1 3.051-2.214 3.2 3.2 0 0 1 2.379 1.06 3.257 3.257 0 0 1 .822 2.484 3.246 3.246 0 0 1-.819 2.488 3.217 3.217 0 0 1-2.382 1.062 3.217 3.217 0 0 1-3.053-2.218 3.264 3.264 0 0 1-.148-1.332Zm5.024 0c0-1.48-.661-2.346-1.821-2.346-1.164 0-1.819.866-1.819 2.346 0 1.492.655 2.351 1.819 2.351 1.16 0 1.821-.865 1.821-2.351ZM112.592 2.666h1.29v1.085h.1a2.036 2.036 0 0 1 2.025-1.217 2.194 2.194 0 0 1 1.782.702 2.23 2.23 0 0 1 .567 1.838v4.422h-1.339V5.413c0-1.098-.474-1.643-1.465-1.643a1.548 1.548 0 0 0-1.205.49 1.574 1.574 0 0 0-.415 1.24v3.996h-1.34v-6.83ZM125.926.966v1.731h1.47v1.136h-1.47v3.511c0 .716.292 1.029.959 1.029.171 0 .342-.01.511-.031v1.123a4.37 4.37 0 0 1-.729.069c-1.489 0-2.082-.528-2.082-1.845V3.832h-1.078V2.697h1.078V.966h1.341ZM129.226 0h1.328v3.764h.106a2.08 2.08 0 0 1 2.069-1.223 2.223 2.223 0 0 1 1.764.72 2.253 2.253 0 0 1 .574 1.825v4.41h-1.341V5.419c0-1.091-.505-1.644-1.452-1.644a1.575 1.575 0 0 0-1.254.466 1.603 1.603 0 0 0-.455 1.266v3.989h-1.339V0ZM142.877 7.652a2.775 2.775 0 0 1-1.114 1.525 2.743 2.743 0 0 1-1.827.45 3.081 3.081 0 0 1-3.03-2.195 3.118 3.118 0 0 1-.106-1.33 3.184 3.184 0 0 1 .108-1.333 3.146 3.146 0 0 1 1.72-1.962 3.11 3.11 0 0 1 1.302-.273c1.888 0 3.028 1.299 3.028 3.443v.47h-4.793v.076a1.808 1.808 0 0 0 1.08 1.81c.23.1.478.15.728.147a1.616 1.616 0 0 0 1.614-.828h1.29Zm-4.712-2.201h3.428a1.652 1.652 0 0 0-1.004-1.644 1.63 1.63 0 0 0-.667-.126 1.73 1.73 0 0 0-1.629 1.09 1.743 1.743 0 0 0-.128.68ZM22.304 17.994a7.541 7.541 0 0 1 .971-3.608 7.486 7.486 0 0 1 2.581-2.69 7.652 7.652 0 0 0-2.623-2.352 7.599 7.599 0 0 0-3.393-.92c-2.531-.268-4.985 1.524-6.275 1.524-1.314 0-3.3-1.498-5.439-1.453a7.976 7.976 0 0 0-3.912 1.174 8.04 8.04 0 0 0-2.83 2.963C-1.53 17.71.644 25.174 3.436 29.279c1.397 2.01 3.03 4.256 5.166 4.177 2.091-.088 2.872-1.342 5.396-1.342 2.5 0 3.232 1.342 5.412 1.29 2.244-.036 3.657-2.018 5.005-4.048a16.668 16.668 0 0 0 2.29-4.69 7.219 7.219 0 0 1-3.199-2.67 7.285 7.285 0 0 1-1.202-4.002ZM18.187 5.724A7.421 7.421 0 0 0 19.867.43a7.457 7.457 0 0 0-4.835 2.517 7.072 7.072 0 0 0-1.724 5.098c.934.01 1.86-.194 2.704-.596a6.185 6.185 0 0 0 2.175-1.725ZM48.732 28.366h-7.135l-1.713 5.091h-3.022l6.758-18.834h3.14l6.757 18.834h-3.074l-1.711-5.09Zm-6.396-2.349h5.655l-2.788-8.262h-.078l-2.79 8.262ZM68.112 26.592c0 4.267-2.27 7.009-5.695 7.009a4.604 4.604 0 0 1-2.49-.58 4.642 4.642 0 0 1-1.804-1.823h-.065V38h-2.801V19.725h2.711v2.284h.052a4.856 4.856 0 0 1 1.84-1.817 4.817 4.817 0 0 1 2.505-.61c3.464 0 5.747 2.755 5.747 7.01Zm-2.88 0c0-2.78-1.427-4.608-3.606-4.608-2.14 0-3.58 1.866-3.58 4.608 0 2.767 1.44 4.62 3.58 4.62 2.179 0 3.606-1.815 3.606-4.62ZM83.132 26.592c0 4.267-2.27 7.009-5.696 7.009a4.603 4.603 0 0 1-2.49-.58 4.642 4.642 0 0 1-1.803-1.823h-.065V38h-2.801V19.725h2.711v2.284h.052a4.855 4.855 0 0 1 1.84-1.817 4.816 4.816 0 0 1 2.505-.61c3.464 0 5.747 2.755 5.747 7.01Zm-2.88 0c0-2.78-1.427-4.608-3.606-4.608-2.14 0-3.58 1.866-3.58 4.608 0 2.767 1.44 4.62 3.58 4.62 2.179 0 3.606-1.815 3.606-4.62ZM93.059 28.21c.208 1.867 2.01 3.094 4.475 3.094 2.36 0 4.06-1.227 4.06-2.91 0-1.463-1.025-2.338-3.45-2.938l-2.427-.588c-3.437-.835-5.032-2.453-5.032-5.077 0-3.25 2.814-5.482 6.81-5.482 3.956 0 6.667 2.232 6.758 5.482h-2.827c-.17-1.88-1.714-3.015-3.97-3.015-2.257 0-3.8 1.148-3.8 2.819 0 1.332.985 2.115 3.398 2.715l2.062.51c3.841.913 5.436 2.466 5.436 5.22 0 3.524-2.789 5.731-7.226 5.731-4.15 0-6.953-2.155-7.134-5.562h2.867ZM110.598 16.476v3.25h2.595v2.232h-2.595v7.57c0 1.176.519 1.724 1.66 1.724.308-.006.616-.027.921-.065v2.218a7.645 7.645 0 0 1-1.556.13c-2.762 0-3.84-1.043-3.84-3.707v-7.87h-1.984v-2.233h1.984v-3.25h2.815ZM114.695 26.592c0-4.32 2.529-7.035 6.472-7.035 3.957 0 6.474 2.715 6.474 7.035 0 4.332-2.504 7.036-6.474 7.036-3.968 0-6.472-2.704-6.472-7.036Zm10.092 0c0-2.964-1.35-4.713-3.62-4.713-2.269 0-3.618 1.763-3.618 4.713 0 2.976 1.349 4.712 3.618 4.712 2.27 0 3.62-1.736 3.62-4.712ZM129.951 19.725h2.671v2.338h.065a3.277 3.277 0 0 1 1.204-1.827 3.238 3.238 0 0 1 2.079-.654c.322-.001.644.034.959.105v2.636a3.888 3.888 0 0 0-1.258-.17 2.813 2.813 0 0 0-2.182.904 2.845 2.845 0 0 0-.737 2.255v8.145h-2.801V19.725ZM149.844 29.424c-.377 2.493-2.789 4.204-5.876 4.204-3.97 0-6.434-2.677-6.434-6.97 0-4.308 2.477-7.102 6.316-7.102 3.776 0 6.15 2.61 6.15 6.774v.966h-9.638v.17a3.59 3.59 0 0 0 .963 2.778 3.55 3.55 0 0 0 2.708 1.111 3.072 3.072 0 0 0 1.894-.44 3.107 3.107 0 0 0 1.257-1.491h2.66Zm-9.469-4.098h6.822a3.32 3.32 0 0 0-.917-2.479 3.278 3.278 0 0 0-2.43-1.007 3.433 3.433 0 0 0-2.459 1.015 3.49 3.49 0 0 0-1.016 2.47Z"/></svg>